<svg xmlns="http://www.w3.org/2000/svg" xml:space="preserve" width="120mm" height="120mm" viewBox="0 0 120 120"><path d="M122.817 20.476s5.039 2.606 6.981 11.259c.685 3.05-.262 5.957-.391 8.134-.2 3.36-.001 4.766 2.361 7.772 1.377 1.751 4.586 5.03.476 7.368-.879.5-2.122.668-1.322 2.606.508 1.232.176 2.173-.17 2.646-1.528 2.083-6.282-.068-6.282-.068s2.792-.172 3.914-1.213c.335-.31-.32-1.654-.369-2.232-.049-.57.199-1.708.483-2.119.365-.527 1.261-1.124 1.676-1.313.288-.131 1.243-.521 1.406-1.205.147-.618-.635-1.356-1.06-2.003-.84-1.28-2.54-2.971-3.475-6.52-.595-2.26.138-5.992.366-8.139.212-2-.194-3.639-.471-4.57-1.09-3.655-2.819-6.483-5.386-8.738-2.566-2.256.758-2.229.758-2.229z" style="fill:#94a88d;fill-opacity:1;stroke:none;stroke-width:.414999;stroke-linecap:butt;stroke-linejoin:round;stroke-dasharray:none;stroke-opacity:1" transform="translate(-41.02 -.395)"/><path d="M105.655 65.062c1.922.899 2.534 1.714 6.655 2.753 3.52.835 6.597 1.374 9.836 2.022 3.513.26 3.854-.357 4.108-2.168-.08-1.111-.473-2.45-.194-3.302.15-.417.536-1.271 1.329-1.792 0 0 .39-.233.055-.529-.625-.515-2.003-1.439-2.814-1.82l4.428.219.632.248c.412.44.532.88.619 1.32.066.473-.014.951-.495 1.388a5.7 5.7 0 0 0-.908.963c-.234.336-.425.824-.22 1.306.17 1.076.12 1.94.041 2.874-.856 3.42-3.288 4.483-6.71 3.946a920 920 0 0 0-4.84-.921c-1.881-.252-3.24.615-4.4 1.911-.911 1.108-1.206 2.37-1.512 3.63-.17 1.197-.14 1.84-.107 2.48l-2.34-3.085c.358-3.169 1.637-5.178 3.602-6.325-4.179-1.284-5.723-3.504-6.765-5.118M124.053 39.932s-.945-.215-2.27.36-2.894 1.51-3.167 1.715-.994.546-.4-.185c.595-.73 2.573-2.212 3.967-2.738 1.393-.526 2.738-.39 3.079-.117.34.273.643.692.623.955s-.214.36-.438.341c-.224-.02-1.394-.331-1.394-.331M118.84 45.68c2.603 2.852 5.532 2.745 7.62 1.735-.957-.302-1.581-1.128-1.715-2.475-.738.811-.642 2.067-5.905.74" style="fill:#94a88d;fill-opacity:1;stroke:none;stroke-width:.414999;stroke-linecap:butt;stroke-linejoin:round;stroke-dasharray:none;stroke-opacity:1" transform="translate(-41.02 -.395)"/><path d="M113.189 18.553s-.624 11.693-28.687 21.515c-14.82 5.187-23.018 12.174-26.934 18.705C54.07 64.608 54.1 70.314 54.1 70.314s1.873-7.084 8.993-13.266c5.286-4.59 15.739-8.533 18.446-9.496 19.391-6.896 30.054-11.126 34.3-26.972 0 0 2.975 18.848-26.603 27.769-27.977 8.437-31.567 17.945-34.357 28.357-.414 1.547-.37 9.243 1.779 14.48 2.443 5.955 7.108 10.621 7.108 10.621s-6.82-11.711-3.943-22.45c3.111-11.613 12.149-17.98 22.695-22.814 5.708-2.617 10.403-4.158 10.403-4.158s-22.607 9.51-28.064 22.295c-5.456 12.784.312 24.01 4.21 27.751 2.57 2.467 5.86 4.708 8.367 5.38 4.281 1.147 8.47.856 8.47.856s-19.16-4.245-15.98-23.464c2.994-18.091 29.482-24.13 41.238-36.716 13.252-14.187 11.225-23.386 11.225-25.257 0-1.87-3.586-7.483-3.586-7.483z" style="fill:#94a88d;fill-opacity:1;stroke:none;stroke-width:.414999;stroke-linecap:butt;stroke-linejoin:round;stroke-dasharray:none;stroke-opacity:1" transform="translate(-41.02 -.395)"/><path d="M141.057 12.1c2.31 0 2.339.356 2.339 1.295 0 .822-.186 1.124-1.464 1.124-6.484.385-11.725 3.006-15.891 7.562-.255.279-.34.826-.083 1.251l-6.672-3.356-3.118-1.598-3.066.72c.042-.184.075-.322.086-.544l-.022-1.969c.039-1.35-1.313-2.137-1.8-2.137-.673 0-.75-.622-.75-1.218 0-.636.13-1.053.819-1.053z" style="fill:#94a88d;fill-opacity:1;stroke-width:.414999;stroke-linejoin:round" transform="translate(-41.02 -.395)"/><path d="M86.063 69.306c2.082-1.593 4.165-2.617 6.248-3.876 3.68-2.126 8.778-4.293 15.292-9.487-2.41 3.211-5.549 6.44-9.72 9.696 5.864 4.533 9.405 8.99 10.918 10.502 4.115 4.116 9.909 11.653 14.023 15.766 6.142 6.332 11.974 11.745 18.942 13.363 2.631.63 3.84.694 5.099.81.963 0 1.075.889 1.075 1.215 0 .608-.254 1.31-1.356 1.31h-19.083c-4.404 0-10.16-2.814-15.622-8.56-7.98-8.793-14.217-16.907-25.816-30.74" style="display:inline;fill:#94a88d;fill-opacity:1;stroke-width:.414999;stroke-linejoin:round" transform="translate(-41.02 -.395)"/><path d="M79.817 74.531c-.108 9.417-.085 20.034.725 25.421.402 3.036 1.24 4.708 4.326 5.379 1.933.401 3.867.54 5.8.772 1.21 0 1.333.786 1.333 1.263 0 .554-.231 1.3-1.094 1.3H85.48l-5.5-.973-4.701-2.385-1.053-3.134c-6.465-10.772-.088-22.56 5.59-27.643M65.481 36.53l.047 10.077c4.579-3.415 9.02-5.857 14.312-7.75V26.473c0-10.966 2.54-11.833 9.12-11.833 1.01 0 1.249-.405 1.24-1.24 0-.98-.42-1.31-1.31-1.31H55.145c-.573 0-1.017.445-1.017 1.018 0 1.117.265 1.462 1.462 1.462 8.519 0 9.845 3.25 9.845 9.845z" style="fill:#94a88d;fill-opacity:1;stroke-width:.414999;stroke-linejoin:round" transform="translate(-41.02 -.395)"/></svg>